<?xml version="1.0" standalone="no"?>
<!DOCTYPE svg PUBLIC "-//W3C//DTD SVG 20010904//EN"
 "http://www.w3.org/TR/2001/REC-SVG-20010904/DTD/svg10.dtd">
<svg version="1.0" xmlns="http://www.w3.org/2000/svg"
 width="600.000000pt" height="600.000000pt" viewBox="0 0 600.000000 600.000000"
 preserveAspectRatio="xMidYMid meet">
<metadata>
Created by potrace 1.14, written by Peter Selinger 2001-2017
</metadata>
<g transform="translate(0.000000,600.000000) scale(0.100000,-0.100000)"
fill="#000000" stroke="none">
<path d="M2799 5996 c-2 -2 -35 -6 -74 -9 -62 -5 -133 -15 -245 -33 -19 -3
-84 -16 -145 -30 -60 -14 -119 -27 -129 -29 -11 -3 -56 -16 -100 -31 -500
-165 -893 -406 -1246 -764 -115 -118 -141 -147 -205 -230 -28 -35 -54 -69 -58
-75 -4 -5 -30 -41 -58 -80 -46 -65 -67 -98 -141 -224 -30 -50 -158 -306 -158
-315 0 -3 -11 -29 -24 -58 -30 -66 -109 -315 -135 -428 -32 -138 -56 -280 -69
-420 -9 -97 -8 -464 1 -560 7 -71 10 -95 22 -165 3 -16 8 -48 11 -70 25 -165
110 -448 191 -640 152 -359 354 -662 625 -936 138 -140 192 -187 333 -294 404
-305 884 -504 1381 -574 148 -21 214 -26 404 -26 177 0 345 8 410 20 14 2 66
11 115 19 50 8 99 17 110 20 11 2 52 12 90 21 39 9 79 18 91 21 49 9 293 98
410 148 453 196 883 535 1178 926 31 41 61 81 67 88 34 41 161 253 218 366
129 253 242 580 277 800 3 21 8 48 10 60 26 129 38 281 39 481 0 190 -9 387
-20 418 -2 7 -6 30 -9 52 -31 252 -146 621 -276 885 -230 462 -597 881 -1025
1165 -143 94 -173 111 -340 194 -297 147 -592 237 -915 281 -41 6 -88 13 -105
16 -34 6 -501 15 -506 10z"/>
</g>
</svg>
